<svg width="44" height="60" viewBox="0 0 44 60" fill="none" xmlns="http://www.w3.org/2000/svg">
<g filter="url(#filter0_di_32001_5118)">
<mask id="path-1-inside-1_32001_5118" fill="white">
<path d="M4 6C4 2.68629 6.68629 0 10 0H34C37.3137 0 40 2.68629 40 6V30C40 33.3137 37.3137 36 34 36H10C6.68629 36 4 33.3137 4 30V6Z"/>
</mask>
<path d="M4 6C4 2.68629 6.68629 0 10 0H34C37.3137 0 40 2.68629 40 6V30C40 33.3137 37.3137 36 34 36H10C6.68629 36 4 33.3137 4 30V6Z" fill="#161E30"/>
<path d="M4 6C4 2.13401 7.13401 -1 11 -1H33C36.866 -1 40 2.13401 40 6C40 3.23858 37.3137 1 34 1H10C6.68629 1 4 3.23858 4 6ZM40 36H4H40ZM4 36V0V36ZM40 0V36V0Z" fill="#2B3B5A" fill-opacity="0.7" mask="url(#path-1-inside-1_32001_5118)"/>
<path d="M20.8746 19.125L28.7496 11.25M20.9703 19.3711L22.9414 24.4396C23.1151 24.8861 23.2019 25.1094 23.327 25.1745C23.4354 25.231 23.5646 25.2311 23.6731 25.1747C23.7983 25.1097 23.8854 24.8866 24.0596 24.4402L29.0023 11.7744C29.1595 11.3716 29.2381 11.1701 29.1951 11.0414C29.1578 10.9296 29.0701 10.8419 28.9583 10.8045C28.8296 10.7615 28.6281 10.8401 28.2252 10.9974L15.5594 15.9401C15.1131 16.1143 14.89 16.2014 14.8249 16.3265C14.7686 16.4351 14.7686 16.5643 14.8251 16.6727C14.8903 16.7978 15.1136 16.8846 15.5601 17.0583L20.6286 19.0294C20.7192 19.0646 20.7645 19.0822 20.8027 19.1094C20.8365 19.1336 20.8661 19.1631 20.8902 19.197C20.9175 19.2351 20.9351 19.2805 20.9703 19.3711Z" stroke="white" stroke-linecap="round" stroke-linejoin="round"/>
</g>
<defs>
<filter id="filter0_di_32001_5118" x="0" y="0" width="44" height="60" filterUnits="userSpaceOnUse" color-interpolation-filters="sRGB">
<feFlood flood-opacity="0" result="BackgroundImageFix"/>
<feColorMatrix in="SourceAlpha" type="matrix" values="0 0 0 0 0 0 0 0 0 0 0 0 0 0 0 0 0 0 127 0" result="hardAlpha"/>
<feMorphology radius="16" operator="erode" in="SourceAlpha" result="effect1_dropShadow_32001_5118"/>
<feOffset dy="20"/>
<feGaussianBlur stdDeviation="10"/>
<feComposite in2="hardAlpha" operator="out"/>
<feColorMatrix type="matrix" values="0 0 0 0 0 0 0 0 0 0 0 0 0 0 0 0 0 0 0.24 0"/>
<feBlend mode="normal" in2="BackgroundImageFix" result="effect1_dropShadow_32001_5118"/>
<feBlend mode="normal" in="SourceGraphic" in2="effect1_dropShadow_32001_5118" result="shape"/>
<feColorMatrix in="SourceAlpha" type="matrix" values="0 0 0 0 0 0 0 0 0 0 0 0 0 0 0 0 0 0 127 0" result="hardAlpha"/>
<feOffset dy="8"/>
<feGaussianBlur stdDeviation="6"/>
<feComposite in2="hardAlpha" operator="arithmetic" k2="-1" k3="1"/>
<feColorMatrix type="matrix" values="0 0 0 0 0.137255 0 0 0 0 0.188235 0 0 0 0 0.290196 0 0 0 0.04 0"/>
<feBlend mode="normal" in2="shape" result="effect2_innerShadow_32001_5118"/>
</filter>
</defs>
</svg>
